<?xml version="1.0" standalone="no"?>
<!DOCTYPE svg PUBLIC "-//W3C//DTD SVG 20010904//EN"
 "http://www.w3.org/TR/2001/REC-SVG-20010904/DTD/svg10.dtd">
<svg version="1.0" xmlns="http://www.w3.org/2000/svg"
 width="500.000000pt" height="500.000000pt" viewBox="0 0 500.000000 500.000000"
 preserveAspectRatio="xMidYMid meet">
<metadata>
Created by potrace 1.14, written by Peter Selinger 2001-2017
</metadata>
<g transform="translate(0.000000,500.000000) scale(0.100000,-0.100000)"
fill="#000000" stroke="none">
<path d="M2410 4953 c-19 -10 -39 -21 -45 -25 -12 -10 -92 -66 -283 -200 -76
-54 -145 -106 -154 -115 -20 -23 -28 -48 -20 -59 8 -10 138 -96 162 -107 8 -4
98 -60 199 -125 173 -111 187 -118 221 -112 46 8 191 103 473 310 64 47 93 86
77 105 -8 9 -160 108 -285 185 -14 8 -76 48 -138 88 -123 77 -147 84 -207 55z"/>
<path d="M3196 4508 c-31 -6 -178 -96 -231 -140 -5 -5 -68 -50 -140 -99 -71
-50 -140 -101 -152 -112 -36 -32 -30 -63 20 -93 23 -15 145 -92 270 -171 225
-143 229 -145 272 -138 36 5 89 37 267 161 217 151 288 210 288 237 0 8 -55
49 -122 91 -68 43 -186 118 -263 167 -177 114 -163 107 -209 97z"/>
<path d="M1736 4473 c-17 -4 -168 -103 -232 -152 -12 -9 -32 -23 -44 -31 -13
-8 -48 -33 -79 -55 -31 -22 -75 -53 -99 -69 -47 -32 -82 -71 -82 -91 0 -13 84
-69 414 -277 172 -109 172 -109 333 6 39 28 134 95 210 148 156 109 186 137
181 167 -4 25 -530 362 -562 360 -12 -1 -30 -4 -40 -6z"/>
<path d="M3879 4016 c-25 -13 -90 -55 -145 -94 -54 -39 -112 -80 -129 -92
-140 -99 -172 -121 -188 -132 -31 -21 -48 -63 -34 -80 9 -12 196 -133 381
-248 165 -102 164 -102 198 -95 44 10 42 9 303 192 232 162 271 199 243 226
-7 7 -112 75 -233 151 -121 77 -234 149 -251 162 -48 35 -91 38 -145 10z"/>
<path d="M2442 4005 c-51 -22 -488 -332 -504 -358 -8 -12 -12 -29 -10 -37 2
-8 85 -67 185 -130 100 -63 218 -138 262 -166 44 -29 94 -55 110 -57 38 -5 87
19 190 92 44 32 139 98 210 148 154 108 170 121 179 150 6 20 -2 29 -66 70
-40 27 -81 52 -90 58 -10 5 -55 34 -100 63 -46 29 -92 59 -102 65 -11 7 -56
36 -100 64 -85 56 -110 61 -164 38z"/>
<path d="M985 3956 c-27 -13 -59 -31 -70 -40 -11 -9 -103 -75 -204 -146 -100
-71 -194 -139 -207 -151 -37 -35 -31 -60 24 -92 26 -15 148 -92 272 -172 243
-156 247 -158 319 -120 18 9 79 49 135 88 55 40 111 79 122 87 12 8 56 39 98
68 103 72 146 110 146 133 0 14 -30 39 -97 83 -294 190 -451 286 -469 286 -10
0 -41 -11 -69 -24z"/>
<path d="M4529 3538 c-35 -24 -66 -46 -69 -49 -3 -3 -59 -43 -125 -90 -66 -46
-122 -86 -125 -89 -3 -3 -38 -29 -79 -58 -40 -28 -85 -68 -100 -89 l-26 -38 0
-262 c0 -274 3 -291 43 -279 42 14 534 374 560 411 l27 38 2 261 c1 257 -2
286 -32 286 -6 0 -41 -19 -76 -42z"/>
<path d="M3225 3540 c-43 -9 -64 -22 -215 -128 -74 -52 -164 -116 -200 -140
-109 -77 -117 -83 -129 -108 -11 -24 -6 -54 10 -54 8 0 53 -28 297 -187 62
-40 114 -73 116 -73 3 0 28 -16 57 -35 98 -64 80 -72 552 264 91 64 116 100
89 124 -16 14 -115 79 -155 102 -24 14 -240 151 -307 195 -69 45 -78 48 -115
40z"/>
<path d="M1739 3500 c-42 -12 -66 -27 -289 -184 -216 -151 -260 -187 -260
-212 0 -12 117 -97 160 -117 16 -7 177 -110 195 -124 46 -36 197 -123 214
-123 41 0 93 30 309 181 226 159 242 171 261 207 10 19 7 24 -31 52 -73 54
-501 322 -517 325 -9 1 -28 -1 -42 -5z"/>
<path d="M390 3415 c-10 -12 -12 -77 -11 -272 1 -275 1 -273 55 -329 12 -12
134 -96 271 -188 184 -123 257 -166 275 -164 l25 3 3 260 c1 170 -1 269 -8
286 -6 15 -26 40 -43 56 -40 38 -504 349 -533 357 -13 4 -26 1 -34 -9z"/>
<path d="M3801 3023 c-171 -115 -443 -317 -465 -346 -45 -61 -48 -92 -47 -454
1 -90 4 -106 21 -123 26 -26 14 -34 302 172 250 178 283 208 305 288 9 30 9
446 0 470 -8 23 -24 39 -38 40 -4 0 -38 -21 -78 -47z"/>
<path d="M2442 3025 c-44 -19 -460 -311 -494 -347 -35 -37 -27 -59 30 -92 59
-33 430 -270 457 -291 10 -8 24 -15 30 -16 5 0 17 -2 26 -4 30 -5 98 33 247
138 81 57 178 126 217 152 71 50 114 92 115 111 0 14 -42 46 -135 102 -38 24
-146 92 -240 152 -102 66 -180 110 -195 109 -14 0 -40 -6 -58 -14z"/>
<path d="M1112 2938 c-15 -15 -17 -466 -1 -521 5 -20 25 -52 43 -70 36 -36
497 -347 525 -354 10 -2 25 3 35 12 14 14 16 47 16 258 0 263 -6 294 -61 343
-51 45 -508 344 -526 344 -10 0 -24 -5 -31 -12z"/>
<path d="M4330 2634 c-283 -202 -272 -194 -302 -248 -21 -39 -22 -54 -23 -276
-1 -139 2 -244 8 -257 17 -39 44 -34 119 20 31 23 64 48 75 55 140 96 363 261
380 281 44 50 51 94 51 327 1 234 -5 274 -42 274 -11 0 -131 -79 -266 -176z"/>
<path d="M391 2676 c-7 -9 -11 -94 -12 -263 -1 -206 2 -255 14 -280 17 -32 86
-103 100 -103 5 0 26 -13 47 -30 21 -16 40 -30 44 -30 3 0 43 -26 89 -57 46
-32 91 -62 100 -68 8 -5 54 -36 100 -67 140 -96 137 -100 137 214 0 260 -3
284 -47 334 -25 28 -528 364 -546 364 -8 0 -20 -6 -26 -14z"/>
<path d="M3079 2503 c-151 -111 -211 -155 -334 -243 -71 -52 -135 -101 -142
-110 -26 -33 -36 -120 -37 -320 -2 -207 7 -272 35 -278 12 -2 103 57 174 113
11 9 41 30 66 48 26 18 108 76 182 130 177 128 170 111 172 412 2 244 -4 295
-33 295 -10 0 -47 -21 -83 -47z"/>
<path d="M1822 2483 c-3 -10 -7 -128 -7 -263 0 -243 0 -245 25 -285 30 -49 8
-32 301 -230 136 -91 256 -165 267 -165 12 0 24 6 29 13 4 6 9 120 9 252 2
255 -2 282 -53 341 -32 38 -514 354 -540 354 -13 0 -27 -8 -31 -17z"/>
<path d="M3609 2133 c-154 -110 -270 -200 -281 -218 -33 -53 -38 -99 -39 -318
-1 -230 7 -276 45 -269 15 3 143 91 435 300 153 110 157 121 156 438 -1 173
-4 206 -18 228 -10 14 -21 26 -26 26 -5 0 -127 -84 -272 -187z"/>
<path d="M1116 2214 c-20 -19 -19 -3 -22 -244 -2 -234 6 -285 58 -342 28 -31
434 -309 507 -348 22 -11 27 -10 46 12 21 24 21 34 20 254 -1 210 -3 233 -22
276 -12 26 -32 56 -45 68 -43 37 -501 340 -514 340 -7 0 -20 -7 -28 -16z"/>
<path d="M4539 2077 c-237 -164 -466 -331 -492 -361 -47 -53 -55 -100 -54
-336 0 -206 6 -258 31 -261 29 -3 73 20 141 74 5 5 89 64 185 133 96 68 185
132 198 142 12 9 35 37 50 62 26 45 26 45 30 287 3 234 3 242 -17 262 -26 26
-31 26 -72 -2z"/>
<path d="M375 1947 c-3 -12 -5 -135 -3 -273 l3 -251 28 -36 c37 -49 510 -368
554 -375 27 -3 33 0 38 20 3 13 5 134 3 269 -3 243 -3 246 -28 283 -14 21 -56
59 -95 85 -319 216 -452 301 -472 301 -15 0 -24 -7 -28 -23z"/>
<path d="M3142 1779 c-13 -5 -109 -71 -214 -146 -104 -76 -205 -148 -224 -161
-62 -41 -113 -99 -126 -145 -9 -32 -13 -110 -11 -263 0 -121 1 -227 2 -236 1
-10 12 -20 27 -24 21 -5 43 5 117 56 51 35 94 66 97 70 3 3 43 33 89 65 46 33
116 84 157 112 40 29 88 74 106 100 l33 48 1 252 c1 220 -1 254 -15 267 -11
10 -23 11 -39 5z"/>
<path d="M1835 1770 c-19 -7 -20 -16 -20 -266 -1 -235 1 -262 18 -293 24 -45
28 -47 319 -242 242 -162 278 -180 291 -146 2 7 4 127 3 267 -1 249 -2 256
-24 293 -18 28 -87 80 -280 210 -142 94 -264 175 -272 178 -8 4 -24 3 -35 -1z"/>
<path d="M3828 1537 c-15 -7 -131 -86 -257 -177 -228 -163 -231 -166 -263
-229 l-32 -64 -2 -213 c-2 -192 0 -215 17 -243 10 -17 27 -31 36 -31 10 0 65
34 123 75 58 41 151 108 208 148 57 39 115 82 130 94 15 13 30 23 34 23 14 0
57 78 72 131 13 43 16 97 14 256 -3 181 -5 203 -22 222 -22 24 -22 24 -58 8z"/>
<path d="M1112 1466 c-16 -22 -18 -45 -18 -258 1 -321 -22 -283 306 -505 140
-95 263 -174 272 -177 11 -2 25 5 36 19 17 21 18 45 17 257 -1 250 -6 276 -56
329 -20 21 -186 138 -247 174 -9 6 -19 12 -22 15 -14 14 -102 70 -109 70 -5 0
-11 3 -13 8 -4 9 -107 76 -130 85 -11 4 -24 -2 -36 -17z"/>
<path d="M3117 1015 c-15 -8 -67 -43 -114 -77 -48 -35 -97 -70 -109 -78 -80
-53 -273 -198 -292 -220 -49 -52 -52 -73 -52 -338 0 -264 3 -281 46 -265 17 6
95 55 119 76 10 8 124 90 315 227 91 65 149 132 151 174 4 98 0 496 -5 505
-10 15 -25 14 -59 -4z"/>
<path d="M1823 983 c-16 -24 -18 -54 -18 -253 l0 -225 28 -57 c27 -55 32 -59
283 -227 140 -94 260 -171 267 -171 47 1 54 37 52 285 -2 205 -3 223 -24 267
-12 25 -30 53 -39 61 -34 29 -480 327 -506 337 -23 8 -28 6 -43 -17z"/>
</g>
</svg>
